# Blender v2.90.1 OBJ File: ''
# www.blender.org
mtllib rockdummy.mtl
o rockdummy
v -0.051463 -0.951383 -0.159609
v -0.254458 -0.918800 -0.187744
v -0.193173 -0.857208 -0.367733
v 0.014491 -0.915271 -0.295346
v 0.230686 -0.903437 -0.078872
v 0.025781 -0.986443 0.014110
v -0.209144 -0.950785 0.025859
v 0.634495 -0.140344 -0.654662
v 0.733631 0.002156 -0.619921
v 0.784758 -0.154060 -0.405700
v 0.618007 -0.291287 -0.541787
v 0.492008 -0.104572 -0.776978
v 0.538522 0.100343 -0.776902
v 0.415925 -0.355455 -0.712730
v -0.634581 0.442609 0.562807
v -0.784927 0.484714 0.320971
v -0.854340 0.204905 0.422250
v -0.664772 0.233293 0.646029
v -0.435341 0.247069 -0.809133
v -0.535831 0.334371 -0.733379
v -0.278557 0.459058 -0.794128
v -0.239167 0.260791 -0.895297
v -0.259770 0.064174 -0.906445
v -0.481778 0.071561 -0.810019
v -0.667440 0.135986 -0.680086
v 0.650996 0.491125 0.531633
v 0.771783 0.342941 0.402564
v 0.741364 0.545465 0.159559
v 0.600560 0.634530 0.403503
v -0.037971 0.956296 0.181375
v 0.045687 0.910425 0.323984
v 0.218927 0.907661 0.113361
v 0.044079 0.988334 0.007469
v -0.237459 0.932344 0.166522
v -0.190581 0.837143 0.374560
v -0.165924 0.929897 -0.054090
v -0.503609 -0.281947 -0.716359
v -0.381089 -0.364356 -0.794120
v -0.449674 -0.523413 -0.660138
v -0.596563 -0.346798 -0.582310
v -0.511388 -0.126823 -0.766102
v -0.321166 -0.146560 -0.889698
v -0.669828 -0.106894 -0.610297
v -0.160841 -0.877913 0.414025
v 0.014154 -0.874254 0.475234
v -0.081620 -0.734790 0.634212
v -0.358200 -0.780360 0.482081
v -0.198228 -0.921372 0.222139
v 0.093091 -0.948895 0.272947
v -0.432467 -0.843115 0.238658
v -0.500834 -0.575004 0.550820
v -0.612840 -0.629257 0.267810
v -0.644891 -0.689604 0.006260
v -0.458208 -0.876074 0.006309
v -0.654466 -0.705338 -0.185627
v -0.474909 -0.866919 -0.199431
v -0.621009 -0.697658 -0.341044
v -0.419742 -0.813002 -0.381049
v -0.531822 -0.632758 -0.496582
v -0.333700 -0.733126 -0.549815
v -0.091821 -0.795559 -0.527769
v 0.003907 -0.705499 -0.636897
v 0.255974 -0.761210 -0.543427
v 0.146402 -0.865331 -0.435336
v -0.256471 -0.624944 -0.689726
v -0.179224 -0.446595 -0.799991
v 0.075219 -0.536054 -0.728815
v 0.155296 -0.282720 -0.833426
v 0.334955 -0.591612 -0.617907
v -0.101662 -0.203511 -0.926040
v -0.022708 0.045329 -0.930013
v 0.254710 -0.016165 -0.867154
v 0.293107 0.215153 -0.890543
v 0.023335 0.264444 -0.909314
v 0.026243 0.454375 -0.816718
v 0.291376 0.400479 -0.811300
v 0.248210 0.653281 -0.612056
v 0.501813 0.522585 -0.513068
v 0.527549 0.272644 -0.677149
v -0.003656 0.688261 -0.622116
v -0.039741 0.838202 -0.474028
v 0.222806 0.818683 -0.421424
v -0.355545 0.618929 -0.630329
v -0.420639 0.736507 -0.486985
v -0.466262 0.790581 -0.331189
v -0.079380 0.894774 -0.290528
v -0.649856 0.444619 -0.581159
v -0.724889 0.510230 -0.427031
v -0.766253 0.545948 -0.286893
v -0.760259 0.543526 -0.107146
v -0.494628 0.811713 -0.096833
v -0.880689 0.200725 -0.357397
v -0.929396 0.220029 -0.221734
v -0.928822 0.218780 -0.074046
v -0.909060 0.219020 0.154059
v -0.764918 0.526032 0.131712
v -0.916115 -0.102440 -0.199565
v -0.914731 -0.101285 -0.044677
v -0.874436 -0.104239 0.229981
v -0.771881 -0.091598 0.544010
v -0.829229 -0.441169 0.005462
v -0.816317 -0.367281 0.284118
v -0.685172 -0.323961 0.600302
v -0.405363 -0.275885 0.811144
v -0.560242 -0.027666 0.787993
v -0.222548 -0.540098 0.734208
v 0.113340 -0.432615 0.759494
v -0.074070 -0.129972 0.873176
v 0.244635 -0.639483 0.639665
v 0.593283 -0.442616 0.610358
v 0.468661 -0.232549 0.752504
v 0.328203 -0.757872 0.465256
v 0.648333 -0.550110 0.379214
v 0.804398 -0.415858 0.228851
v 0.813683 -0.247969 0.420841
v 0.387407 -0.838240 0.242863
v 0.601469 -0.710135 0.095026
v 0.709972 -0.618605 -0.012935
v 0.770817 -0.435682 -0.165391
v 0.856299 -0.262577 -0.000554
v 0.392424 -0.820855 -0.222824
v 0.491872 -0.733484 -0.307501
v 0.553859 -0.556418 -0.386428
v 0.848922 -0.018955 -0.302954
v 0.866233 0.174119 -0.137066
v 0.887538 -0.050590 0.160139
v 0.830393 0.359527 0.014215
v 0.860996 0.136964 0.281647
v 0.745424 -0.055151 0.548374
v 0.641293 0.195347 0.654211
v 0.298306 0.056574 0.830468
v 0.496442 0.438141 0.693852
v 0.140347 0.329605 0.857603
v -0.245091 0.129055 0.905186
v 0.024339 0.537277 0.817105
v -0.376109 0.366492 0.789648
v -0.094306 0.677403 0.643022
v -0.459598 0.563032 0.605745
v -0.496766 0.691545 0.364046
v -0.514755 0.783034 0.149408
v 0.202659 0.784578 0.510243
v 0.365340 0.621448 0.643380
v 0.423246 0.783265 0.273418
v 0.601125 0.737034 0.002483
v 0.389574 0.867792 -0.139927
v 0.682493 0.583738 -0.189205
v 0.460077 0.726930 -0.331296
v 0.176429 0.929598 -0.235915
v 0.744596 0.373000 -0.353866
v 0.761491 0.154404 -0.509733
v -0.836058 -0.465839 -0.162267
v -0.907171 -0.112021 -0.327249
v -0.801528 -0.457863 -0.277984
v -0.812866 -0.112863 -0.454520
v -0.722953 -0.418858 -0.402907
v -0.789120 0.171165 -0.512118
vt 0.773565 0.325474
vt 0.745158 0.289208
vt 0.785504 0.264045
vt 0.806721 0.314597
vt 0.802654 0.382959
vt 0.757625 0.362020
vt 0.722518 0.330962
vt 0.197248 0.778448
vt 0.237956 0.777535
vt 0.235570 0.844253
vt 0.166450 0.818838
vt 0.185322 0.734438
vt 0.228783 0.723822
vt 0.115233 0.755400
vt 0.468705 0.500720
vt 0.433975 0.490731
vt 0.454873 0.455028
vt 0.488681 0.478489
vt 0.250228 0.538000
vt 0.274283 0.526831
vt 0.275830 0.573706
vt 0.238751 0.574478
vt 0.202263 0.561339
vt 0.223551 0.514070
vt 0.262096 0.485098
vt 0.563370 0.724585
vt 0.539712 0.815501
vt 0.450235 0.753669
vt 0.501019 0.704813
vt 0.426526 0.601700
vt 0.447593 0.608054
vt 0.425004 0.637245
vt 0.406774 0.614936
vt 0.420366 0.578258
vt 0.448402 0.575631
vt 0.395789 0.590206
vt 0.794743 0.018289
vt 0.849733 0.055792
vt 0.792212 0.112324
vt 0.730545 0.046971
vt 0.144426 0.438958
vt 0.187663 0.476520
vt 0.156650 0.531965
vt 0.088399 0.477218
vt 0.174079 0.374258
vt 0.232315 0.435150
vt 0.680586 0.392661
vt 0.695531 0.420018
vt 0.661022 0.433190
vt 0.641507 0.384095
vt 0.698282 0.361558
vt 0.730972 0.404054
vt 0.656808 0.336753
vt 0.596015 0.391230
vt 0.593885 0.322404
vt 0.625803 0.260021
vt 0.682042 0.294104
vt 0.657081 0.217414
vt 0.706654 0.253919
vt 0.690995 0.187447
vt 0.744028 0.222748
vt 0.737273 0.154482
vt 0.792160 0.194608
vt 0.835385 0.249511
vt 0.884144 0.240566
vt 0.904268 0.318889
vt 0.854483 0.315808
vt 0.842731 0.164663
vt 0.905763 0.119277
vt 0.952591 0.214661
vt 0.007319 0.669629
vt 0.109747 0.667019
vt 0.027678 0.783829
vt 0.970618 0.321502
vt 0.033915 0.552642
vt 0.132135 0.589803
vt 0.191159 0.611589
vt 0.185396 0.673862
vt 0.231900 0.669028
vt 0.235267 0.620369
vt 0.270453 0.620803
vt 0.265939 0.663803
vt 0.314969 0.652769
vt 0.317877 0.700685
vt 0.266655 0.716041
vt 0.315464 0.616076
vt 0.343515 0.610431
vt 0.350331 0.645287
vt 0.310279 0.566404
vt 0.336087 0.560828
vt 0.356910 0.555283
vt 0.367534 0.603715
vt 0.307124 0.516690
vt 0.332795 0.509714
vt 0.353232 0.505330
vt 0.377485 0.501508
vt 0.385274 0.549188
vt 0.327465 0.454642
vt 0.352108 0.450232
vt 0.376301 0.446288
vt 0.413502 0.447026
vt 0.409343 0.496626
vt 0.342394 0.386222
vt 0.378531 0.382100
vt 0.441865 0.388477
vt 0.497337 0.423747
vt 0.389898 0.274798
vt 0.489735 0.318314
vt 0.538601 0.404584
vt 0.571646 0.454384
vt 0.529882 0.464815
vt 0.621008 0.442397
vt 0.647504 0.491994
vt 0.591602 0.505795
vt 0.690166 0.479326
vt 0.717164 0.543122
vt 0.668230 0.557493
vt 0.726818 0.466372
vt 0.765794 0.529286
vt 0.807270 0.570961
vt 0.755286 0.605588
vt 0.767259 0.448355
vt 0.817827 0.481504
vt 0.854473 0.503667
vt 0.916325 0.539021
vt 0.879080 0.617159
vt 0.853905 0.396477
vt 0.892579 0.410744
vt 0.952363 0.432642
vt 0.087605 0.893337
vt 0.198847 0.963354
vt 0.298745 0.972523
vt 0.285733 0.842915
vt 0.352178 0.832100
vt 0.398800 0.943046
vt 0.813628 0.687644
vt 0.408012 0.801545
vt 0.473346 0.897680
vt 0.744678 0.730259
vt 0.702977 0.630789
vt 0.651924 0.753347
vt 0.635645 0.650753
vt 0.609562 0.570256
vt 0.570233 0.648915
vt 0.558753 0.574485
vt 0.547897 0.512791
vt 0.523723 0.575275
vt 0.509299 0.519513
vt 0.489998 0.573502
vt 0.474733 0.527248
vt 0.441594 0.534476
vt 0.414331 0.541633
vt 0.483527 0.621075
vt 0.525658 0.637476
vt 0.459439 0.668689
vt 0.414717 0.704603
vt 0.391855 0.665460
vt 0.376818 0.732124
vt 0.359442 0.683702
vt 0.378274 0.635491
vt 0.330994 0.759929
vt 0.278073 0.776704
vt 0.533918 0.214731
vt 0.328966 0.275141
vt 0.571403 0.161735
vt 0.313109 0.392721
vt 0.288868 0.286170
vt 0.604479 0.129772
vt 0.277515 0.405362
vt 0.239500 0.311993
vt 0.650912 0.092778
vt 0.296551 0.465331
vn -0.0043 -0.9736 -0.2281
vn -0.1848 -0.9580 -0.2190
vn -0.1437 -0.9050 -0.4004
vn 0.0532 -0.9517 -0.3023
vn 0.3466 -0.9337 -0.0896
vn 0.0939 -0.9952 -0.0264
vn -0.2075 -0.9774 0.0399
vn 0.6675 -0.3542 -0.6550
vn 0.7973 -0.0414 -0.6022
vn 0.8769 -0.2900 -0.3833
vn 0.7020 -0.4523 -0.5501
vn 0.4656 -0.2532 -0.8480
vn 0.5638 0.1214 -0.8169
vn 0.4729 -0.4221 -0.7734
vn -0.6234 0.5007 0.6005
vn -0.7859 0.5322 0.3148
vn -0.9022 0.1520 0.4035
vn -0.6620 0.2423 0.7093
vn -0.4377 0.2079 -0.8747
vn -0.5345 0.3366 -0.7752
vn -0.2340 0.5225 -0.8198
vn -0.2145 0.2520 -0.9436
vn -0.2614 0.0418 -0.9643
vn -0.5231 0.0106 -0.8522
vn -0.6950 0.0441 -0.7176
vn 0.7170 0.4530 0.5298
vn 0.8763 0.2985 0.3782
vn 0.8351 0.5381 0.1145
vn 0.6333 0.6826 0.3646
vn -0.0342 0.9726 0.2300
vn 0.0847 0.9117 0.4020
vn 0.3436 0.9236 0.1698
vn 0.0622 0.9980 -0.0128
vn -0.3206 0.9254 0.2022
vn -0.2574 0.8321 0.4913
vn -0.2497 0.9610 -0.1185
vn -0.6596 -0.2709 -0.7011
vn -0.4411 -0.3571 -0.8233
vn -0.5382 -0.4515 -0.7116
vn -0.7023 -0.3112 -0.6402
vn -0.6116 -0.1705 -0.7725
vn -0.3500 -0.1570 -0.9235
vn -0.7173 -0.2063 -0.6655
vn -0.2016 -0.8923 0.4040
vn 0.0723 -0.8552 0.5132
vn -0.0514 -0.6390 0.7675
vn -0.4394 -0.7303 0.5229
vn -0.2183 -0.9502 0.2223
vn 0.1659 -0.9576 0.2353
vn -0.5258 -0.8071 0.2684
vn -0.5683 -0.5806 0.5831
vn -0.7268 -0.6182 0.2994
vn -0.7450 -0.6508 0.1462
vn -0.5019 -0.8601 0.0912
vn -0.7362 -0.6703 -0.0925
vn -0.4615 -0.8715 -0.1657
vn -0.6694 -0.6092 -0.4251
vn -0.3665 -0.8203 -0.4390
vn -0.5980 -0.5192 -0.6106
vn -0.3053 -0.7381 -0.6016
vn -0.0843 -0.8235 -0.5609
vn 0.0562 -0.6434 -0.7635
vn 0.3661 -0.6878 -0.6268
vn 0.1744 -0.8942 -0.4122
vn -0.2010 -0.5978 -0.7760
vn -0.0800 -0.4607 -0.8839
vn 0.1673 -0.4807 -0.8607
vn 0.2355 -0.3329 -0.9131
vn 0.4706 -0.5007 -0.7265
vn 0.0074 -0.2443 -0.9696
vn 0.0517 -0.0263 -0.9983
vn 0.2618 -0.1445 -0.9542
vn 0.3211 0.1861 -0.9285
vn 0.0400 0.2412 -0.9696
vn 0.0329 0.5479 -0.8359
vn 0.3630 0.5046 -0.7833
vn 0.3445 0.6579 -0.6697
vn 0.6101 0.5547 -0.5657
vn 0.6220 0.4373 -0.6495
vn 0.0199 0.6945 -0.7192
vn -0.0370 0.8404 -0.5407
vn 0.3025 0.7997 -0.5185
vn -0.2985 0.6393 -0.7086
vn -0.3807 0.7598 -0.5270
vn -0.4593 0.8488 -0.2619
vn -0.1381 0.9432 -0.3022
vn -0.6368 0.4342 -0.6371
vn -0.7210 0.5029 -0.4767
vn -0.7869 0.5818 -0.2055
vn -0.8018 0.5975 0.0061
vn -0.5236 0.8494 -0.0657
vn -0.8958 0.1653 -0.4124
vn -0.9691 0.2102 -0.1285
vn -0.9773 0.2063 0.0485
vn -0.9761 0.1726 0.1322
vn -0.8057 0.5818 0.1105
vn -0.9875 -0.1325 -0.0856
vn -0.9885 -0.1332 0.0718
vn -0.9669 -0.1422 0.2118
vn -0.8451 -0.1073 0.5238
vn -0.8970 -0.4237 0.1258
vn -0.8772 -0.3912 0.2782
vn -0.7118 -0.3788 0.5915
vn -0.3269 -0.3128 0.8918
vn -0.5365 -0.0269 0.8435
vn -0.1851 -0.4677 0.8643
vn 0.1357 -0.3420 0.9298
vn 0.0311 -0.1768 0.9837
vn 0.2837 -0.5717 0.7699
vn 0.5786 -0.4404 0.6865
vn 0.4182 -0.1987 0.8863
vn 0.4283 -0.7486 0.5061
vn 0.6822 -0.6186 0.3897
vn 0.8890 -0.4232 0.1747
vn 0.8816 -0.2184 0.4184
vn 0.4814 -0.8492 0.2170
vn 0.6272 -0.7703 0.1148
vn 0.7885 -0.6094 -0.0828
vn 0.8649 -0.4099 -0.2898
vn 0.9716 -0.2267 -0.0681
vn 0.4524 -0.8751 -0.1715
vn 0.6277 -0.6893 -0.3616
vn 0.7100 -0.4944 -0.5013
vn 0.9705 -0.0320 -0.2390
vn 0.9761 0.1702 -0.1349
vn 0.9944 -0.0256 0.1021
vn 0.9400 0.3401 -0.0274
vn 0.9552 0.1481 0.2562
vn 0.7795 -0.0152 0.6261
vn 0.6591 0.1125 0.7436
vn 0.3104 -0.0338 0.9500
vn 0.5046 0.3493 0.7895
vn 0.1841 0.2021 0.9619
vn -0.1663 0.0776 0.9830
vn 0.0033 0.5272 0.8497
vn -0.3610 0.3880 0.8480
vn -0.1616 0.7447 0.6475
vn -0.4424 0.6400 0.6282
vn -0.5030 0.7577 0.4159
vn -0.5639 0.8081 0.1702
vn 0.1939 0.8413 0.5046
vn 0.3470 0.6576 0.6686
vn 0.4623 0.8451 0.2683
vn 0.6634 0.7480 -0.0198
vn 0.4817 0.8649 -0.1410
vn 0.7801 0.5598 -0.2792
vn 0.5733 0.6920 -0.4386
vn 0.2013 0.9434 -0.2636
vn 0.8184 0.4171 -0.3952
vn 0.8417 0.2591 -0.4737
vn -0.9018 -0.4289 -0.0537
vn -0.9114 -0.1523 -0.3822
vn -0.8366 -0.4039 -0.3701
vn -0.7796 -0.1847 -0.5983
vn -0.7273 -0.3430 -0.5945
vn -0.8010 0.1044 -0.5895
usemtl defaultMat
s 1
f 1/1/1 2/2/2 3/3/3 4/4/4
f 1/1/1 4/4/4 5/5/5 6/6/6
f 1/1/1 6/6/6 7/7/7 2/2/2
f 8/8/8 9/9/9 10/10/10 11/11/11
f 8/8/8 12/12/12 13/13/13 9/9/9
f 8/8/8 11/11/11 14/14/14 12/12/12
f 15/15/15 16/16/16 17/17/17 18/18/18
f 19/19/19 20/20/20 21/21/21 22/22/22
f 19/19/19 22/22/22 23/23/23 24/24/24
f 19/19/19 24/24/24 25/25/25 20/20/20
f 26/26/26 27/27/27 28/28/28 29/29/29
f 30/30/30 31/31/31 32/32/32 33/33/33
f 30/30/30 34/34/34 35/35/35 31/31/31
f 30/30/30 33/33/33 36/36/36 34/34/34
f 37/37/37 38/38/38 39/39/39 40/40/40
f 37/41/37 41/42/41 42/43/42 38/44/38
f 37/41/37 40/45/40 43/46/43 41/42/41
f 44/47/44 45/48/45 46/49/46 47/50/47
f 44/47/44 48/51/48 49/52/49 45/48/45
f 44/47/44 47/50/47 50/53/50 48/51/48
f 50/53/50 47/50/47 51/54/51 52/55/52
f 50/53/50 52/55/52 53/56/53 54/57/54
f 50/53/50 54/57/54 7/7/7 48/51/48
f 54/57/54 53/56/53 55/58/55 56/59/56
f 54/57/54 56/59/56 2/2/2 7/7/7
f 56/59/56 55/58/55 57/60/57 58/61/58
f 56/59/56 58/61/58 3/3/3 2/2/2
f 58/61/58 57/60/57 59/62/59 60/63/60
f 58/61/58 60/63/60 61/64/61 3/3/3
f 61/64/61 62/65/62 63/66/63 64/67/64
f 61/64/61 64/67/64 4/4/4 3/3/3
f 61/64/61 60/63/60 65/68/65 62/65/62
f 65/68/65 66/69/66 67/70/67 62/65/62
f 65/68/65 60/63/60 59/62/59 39/39/39
f 65/68/65 39/39/39 38/38/38 66/69/66
f 67/71/67 68/72/68 14/14/14 69/73/69
f 67/70/67 69/74/69 63/66/63 62/65/62
f 67/71/67 66/75/66 70/76/70 68/72/68
f 70/76/70 71/77/71 72/78/72 68/72/68
f 70/76/70 66/75/66 38/44/38 42/43/42
f 70/76/70 42/43/42 23/23/23 71/77/71
f 72/78/72 73/79/73 13/13/13 12/12/12
f 72/78/72 12/12/12 14/14/14 68/72/68
f 72/78/72 71/77/71 74/80/74 73/79/73
f 74/80/74 75/81/75 76/82/76 73/79/73
f 74/80/74 71/77/71 23/23/23 22/22/22
f 74/80/74 22/22/22 21/21/21 75/81/75
f 76/82/76 77/83/77 78/84/78 79/85/79
f 76/82/76 79/85/79 13/13/13 73/79/73
f 76/82/76 75/81/75 80/86/80 77/83/77
f 80/86/80 81/87/81 82/88/82 77/83/77
f 80/86/80 75/81/75 21/21/21 83/89/83
f 80/86/80 83/89/83 84/90/84 81/87/81
f 84/90/84 85/91/85 86/92/86 81/87/81
f 84/90/84 83/89/83 87/93/87 88/94/88
f 84/90/84 88/94/88 89/95/89 85/91/85
f 89/95/89 90/96/90 91/97/91 85/91/85
f 89/95/89 88/94/88 92/98/92 93/99/93
f 89/95/89 93/99/93 94/100/94 90/96/90
f 94/100/94 95/101/95 96/102/96 90/96/90
f 94/100/94 93/99/93 97/103/97 98/104/98
f 94/100/94 98/104/98 99/105/99 95/101/95
f 99/105/99 100/106/100 17/17/17 95/101/95
f 99/105/99 98/104/98 101/107/101 102/108/102
f 99/105/99 102/108/102 103/109/103 100/106/100
f 103/109/103 104/110/104 105/111/105 100/106/100
f 103/109/103 102/108/102 52/55/52 51/54/51
f 103/109/103 51/54/51 106/112/106 104/110/104
f 106/112/106 107/113/107 108/114/108 104/110/104
f 106/112/106 51/54/51 47/50/47 46/49/46
f 106/112/106 46/49/46 109/115/109 107/113/107
f 109/115/109 110/116/110 111/117/111 107/113/107
f 109/115/109 46/49/46 45/48/45 112/118/112
f 109/115/109 112/118/112 113/119/113 110/116/110
f 113/119/113 114/120/114 115/121/115 110/116/110
f 113/119/113 112/118/112 116/122/116 117/123/117
f 113/119/113 117/123/117 118/124/118 114/120/114
f 118/124/118 119/125/119 120/126/120 114/120/114
f 118/124/118 117/123/117 121/127/121 122/128/122
f 118/124/118 122/128/122 123/129/123 119/125/119
f 123/130/123 11/11/11 10/10/10 119/131/119
f 123/129/123 122/128/122 63/66/63 69/74/69
f 123/130/123 69/73/69 14/14/14 11/11/11
f 122/128/122 121/127/121 64/67/64 63/66/63
f 121/127/121 117/123/117 116/122/116 5/5/5
f 121/127/121 5/5/5 4/4/4 64/67/64
f 120/132/120 124/133/124 125/134/125 126/135/126
f 120/126/120 126/136/126 115/121/115 114/120/114
f 120/132/120 119/131/119 10/10/10 124/133/124
f 126/135/126 125/134/125 127/137/127 128/138/128
f 126/136/126 128/139/128 129/140/129 115/121/115
f 129/140/129 128/139/128 27/141/27 130/142/130
f 129/140/129 130/142/130 131/143/131 111/117/111
f 129/140/129 111/117/111 110/116/110 115/121/115
f 131/143/131 130/142/130 132/144/132 133/145/133
f 131/143/131 133/145/133 134/146/134 108/114/108
f 131/143/131 108/114/108 107/113/107 111/117/111
f 134/146/134 133/145/133 135/147/135 136/148/136
f 134/146/134 136/148/136 18/18/18 105/111/105
f 134/146/134 105/111/105 104/110/104 108/114/108
f 136/148/136 135/147/135 137/149/137 138/150/138
f 136/148/136 138/150/138 15/15/15 18/18/18
f 138/150/138 137/149/137 35/35/35 139/151/139
f 138/150/138 139/151/139 16/16/16 15/15/15
f 139/151/139 35/35/35 34/34/34 140/152/140
f 139/151/139 140/152/140 96/102/96 16/16/16
f 140/152/140 34/34/34 36/36/36 91/97/91
f 140/152/140 91/97/91 90/96/90 96/102/96
f 137/149/137 141/153/141 31/31/31 35/35/35
f 137/149/137 135/147/135 142/154/142 141/153/141
f 142/154/142 29/29/29 143/155/143 141/153/141
f 142/154/142 135/147/135 133/145/133 132/144/132
f 142/154/142 132/144/132 26/26/26 29/29/29
f 143/155/143 29/29/29 28/28/28 144/156/144
f 143/155/143 144/156/144 145/157/145 32/32/32
f 143/155/143 32/32/32 31/31/31 141/153/141
f 145/157/145 144/156/144 146/158/146 147/159/147
f 145/157/145 147/159/147 82/88/82 148/160/148
f 145/157/145 148/160/148 33/33/33 32/32/32
f 148/160/148 82/88/82 81/87/81 86/92/86
f 148/160/148 86/92/86 36/36/36 33/33/33
f 147/159/147 146/158/146 149/161/149 78/84/78
f 147/159/147 78/84/78 77/83/77 82/88/82
f 149/161/149 146/158/146 127/137/127 125/134/125
f 149/161/149 125/134/125 124/133/124 150/162/150
f 149/161/149 150/162/150 79/85/79 78/84/78
f 150/162/150 124/133/124 10/10/10 9/9/9
f 150/162/150 9/9/9 13/13/13 79/85/79
f 146/158/146 144/156/144 28/28/28 127/137/127
f 132/144/132 130/142/130 27/141/27 26/26/26
f 128/138/128 127/137/127 28/28/28 27/27/27
f 116/122/116 112/118/112 45/48/45 49/52/49
f 116/122/116 49/52/49 6/6/6 5/5/5
f 105/111/105 18/18/18 17/17/17 100/106/100
f 102/108/102 101/163/101 53/56/53 52/55/52
f 101/107/101 98/104/98 97/103/97 151/164/151
f 101/163/101 151/165/151 55/58/55 53/56/53
f 151/164/151 97/103/97 152/166/152 153/167/153
f 151/165/151 153/168/153 57/60/57 55/58/55
f 153/167/153 152/166/152 154/169/154 155/170/155
f 153/168/153 155/171/155 59/62/59 57/60/57
f 155/170/155 154/169/154 43/46/43 40/45/40
f 155/171/155 40/40/40 39/39/39 59/62/59
f 154/169/154 152/166/152 92/98/92 156/172/156
f 154/169/154 156/172/156 25/25/25 43/46/43
f 156/172/156 92/98/92 88/94/88 87/93/87
f 156/172/156 87/93/87 20/20/20 25/25/25
f 152/166/152 97/103/97 93/99/93 92/98/92
f 96/102/96 95/101/95 17/17/17 16/16/16
f 91/97/91 36/36/36 86/92/86 85/91/85
f 87/93/87 83/89/83 21/21/21 20/20/20
f 49/52/49 48/51/48 7/7/7 6/6/6
f 43/46/43 25/25/25 24/24/24 41/42/41
f 42/43/42 41/42/41 24/24/24 23/23/23
